<?xml version="1.0" standalone="no"?><!DOCTYPE svg PUBLIC "-//W3C//DTD SVG 1.1//EN" "http://www.w3.org/Graphics/SVG/1.1/DTD/svg11.dtd"><svg width="364" height="364" transform="translate(10,10)" version="1.1" xmlns="http://www.w3.org/2000/svg" xmlns:xlink="http://www.w3.org/1999/xlink"><defs xmlns="http://www.w3.org/1999/xhtml"><style type="text/css"><![CDATA[
.wrapper { width: 800px; margin-left: auto; margin-right: auto; }
.profile { width: 100%; }
#map { width: 100%; display: inline-block; }
header h2 { display: inline-block; }]]></style></defs><path d="M136.43629362936326,18.03624945082788L184.23063306330687,18.03624945082788L184.23063306330687,80.83485922964189L186.27105710571095,80.49501348654849L192.1848284828484,86.63952790260043L195.36650665066554,85.58815566751389L203.7357035703576,85.92735317891527L205.60321032103275,92.05941159246152L210.9636463646366,91.68714497127189L216.73908390839097,94.49479347393844L221.92660266026678,94.15667782790331L224.10536053605392,96.75907394937292L227.42537253725413,93.78470154095476L232.47455745574598,95.20469812616057L234.6187318731877,98.68390632330079L238.38832883288342,99.19021315450357L240.39416941694208,103.54054398974347L245.02835283528384,99.35896101516562L251.2187918791883,101.8214812610936L253.53588358835896,104.41650956421495L256.5792279227926,103.20355880061254L258.72340234023477,107.21097148483864L265.3980098009806,100.06758699887962L267.2655165516553,103.7090208800438L273.04095409541014,103.7090208800438L278.5051405140521,105.96560255917018L280.5455645564557,108.75847328984946L285.7330833083315,103.87748730449516L291.3701870187024,102.32720117901454L293.9639463946396,104.07963320278225L300.1889688968904,100.9446762384191L301.60689068906913,102.66429534442682L308.4198319831985,102.86653171512171L310.1490049004901,100.06758699887962L316.9273627362736,103.20355880061254L319.5211221122113,106.84078625791483L329.61949194919544,110.30509621164117L332.38616861686205,113.26141189493774L337.57368736873696,111.71646441240341L341.3432843284331,113.09352513352178L341.3432843284331,129.83159701008537L341.3432843284331,161.85429680413688L347.1187218721875,168.67646046559605L347.257055705571,175.44959629838866L354.4504150415046,187.96765114717095L354.9000000000001,194.5328514594829L352.16790679067935,202.41781523475197L349.5741474147417,205.63742951321137L350.4387338733882,209.79499680166873L348.53664366436715,213.00664248941428L350.5770677067708,218.83718441257747L344.35204520452044,229.65852056911092L346.669136913692,232.65581728503548L342.34620462046223,232.8490900495085L328.6165716571659,236.96933150307427L323.70572057205754,234.65237919514027L322.84113411341195,229.65852056911092L319.38278827882823,233.17118411281592L316.9273627362736,232.33366878745005L315.6131913191325,236.64763745291816L318.3798679867991,238.48084131333076L318.79486948694876,244.10227251256458L313.8840184018404,250.06584547045009L305.9644064406443,257.48826851419744L290.0560156015604,265.40316175510634L288.49975997599813,264.09602488436144L283.72724272427286,266.0724611638384L283.58890889088934,264.25546084324753L277.08721872187243,265.5625316325146L274.04387438743925,261.7673398852602L272.1763676367641,262.5969321706076L279.0930593059311,270.33989510468086L274.04387438743925,272.78948046308415L269.27135713571397,271.3263190515422L268.54510451045144,276.73030764177656L262.63133313331355,282.2837025617781L256.5792279227926,292.5717982068778L252.67129712971337,303.33149168762304L249.80087008700912,302.51234817953286L249.07461746174613,306.41720207460855L252.08337833783435,305.44142235093614L250.6654565456547,313.2396139802437L248.62503250325062,313.5536730552071L248.48669866986756,317.9160330037929L250.94212421242128,320.3614846928285L251.6683768376838,329.219186063948L254.5388038803885,332.2811181573833L255.26505650565105,337.9290928690058L257.5821482148217,342.9140337000757L249.4896189618962,345.9637505491721L246.16960696069646,342.1044724189726L239.979167916792,340.67170512456573L231.74830483048345,340.98322704799966L224.65869586958706,336.15145615791505L219.3328432843291,335.6835034251701L215.28657865786636,331.812633890725L209.78780878087855,330.5317807306718L206.05279527952825,326.81144121610316L203.5973697369741,317.9160330037929L198.8248524852488,312.5799933999631L199.41277127712783,308.053346617083L197.23401340134023,303.1739799365736L197.96026602660277,298.9498481316897L194.640254025403,294.21486563336657L191.87357735773594,293.70939480494303L187.41231123112357,289.47298700767874L185.95980598059805,284.0904494554874L182.0864586458647,279.1749877484433L176.44935493549428,275.07829589437245L173.6826782678272,266.0724611638384L171.08891889188953,263.58577558308355L167.63057305730626,256.33767027278304L166.48931893189365,250.38614275891314L163.16930693069344,246.09140769101919L157.53220322032257,242.30453144920784L156.21803180318057,239.6380899614776L151.03051305130566,237.32315593943508L146.98424842484292,230.65794738003126L135.43337333733416,229.17480900518706L128.51668166816717,229.4972919334249L122.60291029102927,227.174650251039L121.28873887388772,230.3355875080265L114.92538253825433,231.33479200679164L110.15286528652905,237.64477906597153L107.2824382438248,247.7587282781326L105.69159915991622,247.91900024651545L102.09491949194944,253.87524472553991L97.73740374037425,254.03520151010207L91.27029702970367,249.39311356658095L74.94690469046964,241.95128045442732L71.76522652265248,237.96636844745422L65.40187018701909,234.1694597346783L60.94060406040626,225.49608014255614L60.62935293529381,217.6719819201562L56.16808680868098,211.32014818796574L55.165166516652334,205.79994363406615L52.26015601560175,202.25511561273993L42.023452345234546,197.04399215273622L36.52468246824719,189.99430841099422L32.063416341634365,187.44441450308284L27.29089908990909,181.3876561982148L20.65087508750912,178.1740867350196L16.016691669167358,170.0257840420502L12.143344334434005,168.31433883710974L9.100000000000364,164.75652970954252L9.826252625262896,161.68930853872473L103.37450745074511,161.68930853872473L103.37450745074511,130.36554231504056L103.96242624262459,98.31255431680495L104.1007600760081,18.03624945082788L105.1036803680372,18.03624945082788Z" style="fill: rgb(144, 211, 200);"/><circle cx="230.7322721218252" cy="336.31411177046436" r="12.740000000000002px" fill="#FF6249"/></svg>